REM COMMENT "Generated by IcecastMetadataRecorder https://github.com/eshaz/icecast-metadata-js"
REM BR "16"
REM METAINT "64"
REM DATE "2020-07-29T21:16:11.222Z"
TITLE "isics-all"
FILE "isics-all.mp3" WAVE
  TRACK 1 AUDIO
    TITLE "2020-07-29T21:17:17.606Z TO:24631 Dallas County Fire/EMS Operations FROM:UNKNOWN"
    INDEX 01 01:06:29
  TRACK 2 AUDIO
    TITLE "2020-07-29T21:17:18.974Z TO:1102 Polk County - Westcom Law Enforcement 2 FROM:1373"
    INDEX 01 01:07:56
  TRACK 3 AUDIO
    TITLE "2020-07-29T21:17:21.062Z TO:24631 Dallas County Fire/EMS Operations FROM:UNKNOWN"
    INDEX 01 01:09:63
  TRACK 4 AUDIO
    TITLE "2020-07-29T21:17:30.134Z TO:1102 Polk County - Westcom Law Enforcement 2 FROM:1006"
    INDEX 01 01:18:68
  TRACK 5 AUDIO
    TITLE "2020-07-29T21:17:34.382Z TO:1102 Polk County - Westcom Law Enforcement 2 FROM:1373"
    INDEX 01 01:23:12
  TRACK 6 AUDIO
    TITLE "2020-07-29T21:17:36.470Z TO:24631 Dallas County Fire/EMS Operations FROM:2520309"
    INDEX 01 01:25:19
  TRACK 7 AUDIO
    TITLE "2020-07-29T21:17:42.734Z TO:24631 Dallas County Fire/EMS Operations FROM:2559982"
    INDEX 01 01:31:38
  TRACK 8 AUDIO
    TITLE "2020-07-29T21:17:44.174Z TO:1102 Polk County - Westcom Law Enforcement 2 FROM:1006"
    INDEX 01 01:32:71
  TRACK 9 AUDIO
    TITLE "2020-07-29T21:17:48.350Z TO:24631 Dallas County Fire/EMS Operations FROM:2520002"
    INDEX 01 01:37:10
  TRACK 10 AUDIO
    TITLE "END"
    INDEX 01 01:39:70